<svg width="41" height="46" viewBox="0 0 41 46" fill="none" xmlns="http://www.w3.org/2000/svg">
<path d="M2.51901 23.1133H38.5926V38.7975H2.51901V23.1133Z" fill="#544F57"/>
<path d="M2.5188 23.1094H38.5924V26.7996H2.5188V23.1094Z" fill="#454045"/>
<path d="M2.5188 23.1094H5.48241V38.7935H2.5188V23.1094Z" fill="#454045"/>
<path d="M35.6389 0.667969H5.47426C3.84256 0.667969 2.51974 1.9907 2.51974 3.62248V19.0529H38.5934V3.62248C38.5934 1.99079 37.2706 0.667969 35.6389 0.667969Z" fill="#454045"/>
<path d="M38.5929 19.7314H2.51916C2.1473 19.7314 1.84586 19.43 1.84586 19.0581V3.62773C1.84594 1.62736 3.47331 0 5.47368 0H35.6384C37.6387 0 39.2661 1.62736 39.2661 3.62773V19.0581C39.2661 19.43 38.9647 19.7314 38.5929 19.7314ZM3.19247 18.3849H37.9196V3.62773C37.9196 2.36984 36.8963 1.34652 35.6384 1.34652H5.47368C4.21578 1.34652 3.19247 2.36984 3.19247 3.62773V18.3849Z" fill="#F4DD45"/>
<path d="M38.5932 37.0352H2.51958C1.19039 37.0352 0.112762 38.1127 0.112762 39.442V42.8784C0.112762 44.2076 1.1903 45.2852 2.51958 45.2852H38.5932C39.9224 45.2852 41 44.2077 41 42.8784V39.442C41 38.1127 39.9225 37.0352 38.5932 37.0352Z" fill="#E7A52E"/>
<path d="M7.10054 45.2851H2.51992C1.19047 45.2851 0.112762 44.2074 0.112762 42.8779V39.4415C0.112762 38.1129 1.19047 37.0352 2.51992 37.0352H7.10054C5.77189 37.0352 4.69418 38.1129 4.69418 39.4415V42.8779C4.69427 44.2074 5.77198 45.2851 7.10054 45.2851Z" fill="#DF8621"/>
<path d="M19.7372 33.1278C19.0271 33.1278 18.317 32.9077 17.7111 32.4675L13.5866 29.4709C12.3747 28.5904 11.8715 27.0417 12.3344 25.617L13.9098 20.7685C14.3727 19.3439 15.6902 18.3867 17.1881 18.3867H22.2862C23.7841 18.3867 25.1017 19.3439 25.5645 20.7685L27.14 25.617C27.6028 27.0417 27.0995 28.5905 25.8877 29.4709L21.7633 32.4675C21.1574 32.9078 20.4473 33.1278 19.7372 33.1278ZM21.3675 31.9228H21.3684H21.3675ZM17.1881 19.7332C16.2754 19.7332 15.4725 20.3165 15.1904 21.1847L13.615 26.0332C13.3329 26.9013 13.6395 27.845 14.378 28.3816L18.5024 31.3782C19.241 31.9147 20.2332 31.9147 20.9718 31.3782L25.0963 28.3816C25.8347 27.8451 26.1413 26.9014 25.8593 26.0332L24.2838 21.1847C24.0017 20.3166 23.1989 19.7333 22.2861 19.7333H17.1881V19.7332Z" fill="#454045"/>
<path d="M35.2139 17.2581C35.0798 17.2581 34.9449 17.2679 34.8108 17.2869C34.9457 16.9463 35.0124 16.586 35.0124 16.2273C35.0124 15.4227 34.6776 14.6231 34.0235 14.0538C33.4781 13.5791 32.8043 13.3463 32.1347 13.3463C31.6617 13.3463 31.1894 13.4622 30.7658 13.691C30.7666 13.6605 30.7675 13.6301 30.7675 13.5997C30.7675 12.4792 30.1093 11.4138 29.0135 10.9482C28.6458 10.7919 28.2641 10.7179 27.8882 10.7179C27.1239 10.7179 26.3852 11.0239 25.8454 11.5669C25.7006 11.0173 25.3955 10.5253 24.9775 10.1519C24.5596 9.77753 24.0281 9.52172 23.4292 9.44433C23.3041 9.42788 23.18 9.42045 23.0566 9.42045C22.0101 9.42045 21.0641 9.99053 20.5614 10.8691C20.0579 9.99053 19.1118 9.41797 18.0645 9.41797C17.9419 9.41797 17.8185 9.42619 17.6944 9.44185C17.0962 9.51836 16.564 9.77337 16.1453 10.1469C15.7265 10.5204 15.4213 11.0123 15.2757 11.5619C14.7352 11.0181 13.9964 10.7112 13.2314 10.7112C12.857 10.7112 12.4761 10.7845 12.1092 10.94C11.0118 11.4048 10.352 12.4718 10.352 13.5931C10.352 13.6228 10.3528 13.6515 10.3537 13.6812C9.92922 13.4516 9.45617 13.3348 8.98233 13.3348C8.31344 13.3348 7.64137 13.5668 7.09588 14.0398C6.44018 14.6091 6.1037 15.4104 6.1037 16.2158C6.1037 16.5745 6.17031 16.9331 6.3044 17.273C5.1132 17.101 3.89396 17.6942 3.323 18.8295L12.1446 18.8344L37.79 18.8476C37.2845 17.8406 36.2685 17.2581 35.2139 17.2581Z" fill="#F4DD45"/>
<path d="M20.5614 10.8693C20.5614 10.8693 17.3225 10.7574 17.8293 13.9198C17.8293 13.9198 14.871 13.7446 15.1293 16.6198C15.2641 18.1163 13.6871 18.6584 12.1446 18.8344L3.323 18.8294C3.89396 17.6942 5.11311 17.101 6.30439 17.2729C6.1703 16.9332 6.10369 16.5745 6.10369 16.2158C6.10369 15.4104 6.44017 14.6091 7.09587 14.0398C7.64127 13.5668 8.31342 13.3348 8.9823 13.3348C9.45615 13.3348 9.92919 13.4516 10.3537 13.6811C10.3529 13.6515 10.352 13.6228 10.352 13.5931C10.352 12.4718 11.0118 11.4048 12.1092 10.94C12.4761 10.7845 12.857 10.7112 13.2313 10.7112C13.9964 10.7112 14.7352 11.0181 15.2756 11.5619C15.4212 11.0123 15.7265 10.5204 16.1452 10.1469C16.564 9.77346 17.0963 9.51836 17.6943 9.44185C17.8185 9.42619 17.942 9.41797 18.0645 9.41797C19.1118 9.41806 20.0579 9.9907 20.5614 10.8693Z" fill="#EAB14D"/>
<path d="M38.593 16.625H2.51936C1.19017 16.625 0.112549 17.7025 0.112549 19.0318V22.4682C0.112549 23.7974 1.19009 24.875 2.51936 24.875H38.593C39.9222 24.875 40.9998 23.7975 40.9998 22.4682V19.0318C40.9998 17.7025 39.9223 16.625 38.593 16.625Z" fill="#E7A52E"/>
<path d="M7.10033 24.8749H2.51971C1.19026 24.8749 0.112549 23.7972 0.112549 22.4678V19.0314C0.112549 17.7027 1.19026 16.625 2.51971 16.625H7.10033C5.77168 16.625 4.69397 17.7027 4.69397 19.0314V22.4678C4.69406 23.7972 5.77177 24.8749 7.10033 24.8749Z" fill="#DF8621"/>
<path d="M22.187 31.9215L26.3114 28.9249C27.2836 28.2186 27.6904 26.9666 27.3191 25.8237L25.7436 20.9752C25.3723 19.8324 24.3073 19.0586 23.1057 19.0586H18.0076C16.806 19.0586 15.741 19.8324 15.3697 20.9752L13.7943 25.8237C13.4229 26.9665 13.8297 28.2185 14.8019 28.9249L18.9263 31.9215C19.8985 32.6278 21.2148 32.6278 22.187 31.9215Z" fill="#F4DD45"/>
<path d="M20.5562 33.1278C19.8461 33.1278 19.1361 32.9077 18.5301 32.4675L14.4057 29.4709C13.1938 28.5904 12.6906 27.0417 13.1534 25.617L14.7289 20.7685C15.1918 19.3439 16.5093 18.3867 18.0072 18.3867H23.1053C24.6032 18.3867 25.9207 19.3439 26.3836 20.7685L27.9591 25.617C28.4219 27.0417 27.9186 28.5905 26.7068 29.4709L22.5824 32.4675C21.9764 32.9078 21.2663 33.1278 20.5562 33.1278ZM22.1866 31.9228H22.1875H22.1866ZM18.0072 19.7332C17.0945 19.7332 16.2916 20.3165 16.0095 21.1847L14.4341 26.0332C14.152 26.9013 14.4586 27.845 15.1971 28.3816L19.3215 31.3782C20.0601 31.9147 21.0523 31.9147 21.7909 31.3782L25.9153 28.3816C26.6538 27.8451 26.9604 26.9014 26.6783 26.0332L25.1029 21.1847C24.8208 20.3166 24.0179 19.7333 23.1052 19.7333H18.0072V19.7332Z" fill="#DF8621"/>
<path d="M23.0323 28.2021L21.5312 25.6021C22.1882 25.2219 22.6304 24.5121 22.6304 23.6984C22.6304 22.4842 21.6461 21.5 20.432 21.5C19.2178 21.5 18.2336 22.4842 18.2336 23.6984C18.2336 24.5121 18.676 25.2219 19.3329 25.6021L17.8318 28.2021H23.0323Z" fill="#454045"/>
<path d="M31.1557 8.2912C30.9834 8.2912 30.811 8.22548 30.6796 8.09404C30.4166 7.83115 30.4166 7.4049 30.6795 7.14193L33.1046 4.71673C33.3676 4.45384 33.7939 4.45376 34.0567 4.71673C34.3197 4.97961 34.3197 5.40586 34.0568 5.66883L31.6318 8.09395C31.5003 8.22539 31.328 8.2912 31.1557 8.2912Z" fill="#FBF4AF"/>
<path d="M31.1557 8.2912C30.9834 8.2912 30.811 8.22548 30.6796 8.09404C30.4166 7.83115 30.4166 7.4049 30.6795 7.14193L33.1046 4.71673C33.3676 4.45384 33.7939 4.45376 34.0567 4.71673C34.3197 4.97961 34.3197 5.40586 34.0568 5.66883L31.6318 8.09395C31.5003 8.22539 31.328 8.2912 31.1557 8.2912Z" fill="#FBF4AF"/>
<path d="M28.0255 5.62997C27.908 5.62997 27.7889 5.59918 27.6807 5.53453C27.3615 5.34373 27.2575 4.93039 27.4483 4.61117L28.5329 2.79664C28.7237 2.4775 29.1373 2.37348 29.4562 2.56419C29.7754 2.75498 29.8794 3.16832 29.6886 3.48755L28.604 5.30207C28.478 5.51294 28.2546 5.62997 28.0255 5.62997Z" fill="#FBF4AF"/>
<path d="M33.8173 11.4229C33.5881 11.4229 33.3647 11.3058 33.2386 11.0948C33.048 10.7755 33.1523 10.3622 33.4714 10.1715L35.2864 9.08751C35.6057 8.8969 36.019 9.00109 36.2097 9.32032C36.4003 9.63955 36.296 10.0529 35.9769 10.2436L34.1619 11.3276C34.0537 11.3922 33.9347 11.4229 33.8173 11.4229Z" fill="#FBF4AF"/>
<path d="M9.96023 8.29108C9.78802 8.29108 9.61562 8.22536 9.48409 8.09391L7.05898 5.6688C6.7961 5.40592 6.7961 4.97957 7.05898 4.71669C7.32195 4.45381 7.7482 4.45381 8.01117 4.71669L10.4363 7.14181C10.6992 7.40469 10.6992 7.83103 10.4363 8.09391C10.3048 8.22527 10.1325 8.29108 9.96023 8.29108Z" fill="#FBF4AF"/>
<path d="M9.96023 8.29108C9.78802 8.29108 9.61562 8.22536 9.48409 8.09391L7.05898 5.6688C6.7961 5.40592 6.7961 4.97957 7.05898 4.71669C7.32195 4.45381 7.7482 4.45381 8.01117 4.71669L10.4363 7.14181C10.6992 7.40469 10.6992 7.83103 10.4363 8.09391C10.3048 8.22527 10.1325 8.29108 9.96023 8.29108Z" fill="#FBF4AF"/>
<path d="M13.0901 5.62999C12.861 5.62999 12.6377 5.51305 12.5117 5.30209L11.427 3.48757C11.2362 3.16843 11.3403 2.755 11.6593 2.56421C11.9787 2.3735 12.392 2.47744 12.5827 2.79666L13.6674 4.61118C13.8582 4.93032 13.7541 5.34375 13.435 5.53454C13.3268 5.5992 13.2077 5.62999 13.0901 5.62999Z" fill="#FBF4AF"/>
<path d="M9.25284 17.3786L12.6826 16.6273C13.7442 16.3948 13.7442 14.8809 12.6826 14.6484L9.25284 13.8971C8.86648 13.8125 8.56476 13.5108 8.48011 13.1244L7.72888 9.69465C7.49634 8.63303 5.98247 8.63303 5.74993 9.69465L4.99869 13.1244C4.91405 13.5108 4.61233 13.8125 4.22597 13.8971L0.796209 14.6484C-0.265403 14.8809 -0.265403 16.3948 0.796209 16.6273L4.22597 17.3786C4.61233 17.4633 4.91405 17.765 4.99869 18.1514L5.74993 21.5811C5.98247 22.6427 7.49634 22.6427 7.72888 21.5811L8.48011 18.1514C8.56467 17.7651 8.86648 17.4633 9.25284 17.3786Z" fill="#FBF4AF"/>
</svg>
