<svg width="1075" height="320" viewBox="0 0 1075 320" fill="none" xmlns="http://www.w3.org/2000/svg">
<path d="M977.667 324.068L905.64 298.252L881.55 283.883L839.697 287.049L680.313 240.775L668.147 214.715L523.85 173.069L459.61 153.828L407.293 132.153L372.983 155.29L255.94 140.92L247.91 128.012L236.717 113.643L212.627 121.68L129.407 103.414L119.673 78.3284L97.2867 52.7558L73.1967 47.8849L-20 44.7188V648.231L1075 649.692V335.515L977.667 324.068Z" fill="#8DC9DB"/>
<path d="M215.547 157.724V146.764L151.55 128.011L89.2567 96.8372L6.76667 71.7517L-20 70.0469V111.206L125.027 131.177L215.547 157.724Z" fill="#69A8B2"/>
<path d="M38.8865 19.3893L22.3398 29.6183L87.0665 38.8731L89.4998 31.8102L67.5998 14.0312L38.8865 19.3893Z" fill="#8DC9DB"/>
<path d="M1075 656.997V404.925L983.993 388.364L965.013 361.574L936.543 355.241L904.91 371.072L639.19 291.675L607.557 293.38L555.24 294.842L525.067 277.55L504.627 261.719L491.973 275.845L460.34 268.051L453.527 246.863L416.053 239.556L341.593 230.058L276.867 215.688L215.06 177.695L110.67 136.535L-20 130.203V656.997H1075Z" fill="#69A8B2"/>
<path d="M248.397 188.899L256.183 198.885L263.97 194.988L261.537 181.105L248.397 188.899Z" fill="#69A8B2"/>
<path d="M317.017 188.899L322.37 190.36L327.723 182.567L319.207 181.836L317.017 188.899Z" fill="#69A8B2"/>
<path d="M246.693 171.607L253.75 170.145L256.183 164.544L245.963 161.621L246.693 171.607Z" fill="#69A8B2"/>
<path d="M237.447 181.835L245.233 182.565L247.423 177.938L238.907 176.477L237.447 181.835Z" fill="#69A8B2"/>
<path d="M218.71 170.876L230.39 172.581L231.12 163.813L218.71 162.352V170.876Z" fill="#69A8B2"/>
<path d="M1075 656.999V559.093L870.357 569.566L828.26 557.145L811.227 516.472L755.017 502.59L720.707 522.804L661.577 488.464L627.267 416.618L522.633 332.35L497.813 312.135L475.913 332.35L374.687 334.055L303.39 328.94L300.957 314.814L254.237 297.279L231.85 310.187L178.073 300.932L170.043 249.3L102.153 230.547L56.65 263.426L36.6967 246.865L-20 260.016V656.999H1075Z" fill="#477D89"/>
<path d="M196.08 158.451L203.137 172.577L209.463 168.437L203.137 154.555L196.08 158.451Z" fill="#69A8B2"/>
<path d="M224.063 147.495L230.39 149.93L231.12 143.598L225.037 142.867L224.063 147.495Z" fill="#69A8B2"/>
<path d="M153.253 144.331L157.877 148.958L168.827 146.036L162.5 138.973L153.253 144.331Z" fill="#69A8B2"/>
<path d="M242.8 117.782L249.857 118.513L253.02 107.797H244.503L242.8 117.782Z" fill="#69A8B2"/>
<path d="M654.52 292.649L663.037 291.919L668.39 277.793L648.923 282.42L654.52 292.649Z" fill="#69A8B2"/>
<path d="M774.483 307.504L744.067 312.862L808.063 332.346L836.047 344.036L862.083 352.317L874.98 351.829L851.62 339.409L774.483 307.504Z" fill="#69A8B2"/>
<path d="M362.033 206.679L312.15 199.859L422.137 234.93L475.913 251.248L479.077 242.724L429.923 214.716L362.033 206.679Z" fill="#69A8B2"/>
<path d="M341.837 197.423L351.327 194.987V181.836L337.213 188.168L341.837 197.423Z" fill="#69A8B2"/>
<path d="M12.1199 91.2331L26.9632 96.104L41.0765 84.4137L19.1765 80.2734L12.1199 91.2331Z" fill="#69A8B2"/>
<path d="M34.02 74.1862L42.5366 72.4814L43.2666 63.2266L32.3167 66.3927L34.02 74.1862Z" fill="#69A8B2"/>
<path d="M95.5833 130.446L102.64 131.907L109.453 124.113L98.7466 124.844L95.5833 130.446Z" fill="#69A8B2"/>
<path d="M-2.23667 18.8986L-20 18.168V31.0761L2.38667 30.589L-2.23667 18.8986Z" fill="#8DC9DB"/>
<path d="M56.6499 218.612L76.1166 234.929L94.8532 223.97L80.7399 209.844L56.6499 218.612Z" fill="#477D89"/>
<path d="M36.2102 197.422L42.5369 209.843L53.4869 209.112L51.7835 198.153L36.2102 197.422Z" fill="#477D89"/>
<path d="M84.6333 187.193H92.42L99.4766 177.207H85.3633L84.6333 187.193Z" fill="#477D89"/>
<path d="M304.363 301.176L308.257 314.571L309.96 322.364L396.343 326.261L408.997 314.571L361.303 316.763L304.363 301.176Z" fill="#477D89"/>
<path d="M337.943 304.338L352.056 303.608L368.36 294.84H333.32L337.943 304.338Z" fill="#477D89"/>
<path d="M281.003 288.754H313.853L324.803 266.835L288.79 255.875L281.003 288.754Z" fill="#477D89"/>
<path d="M5.06348 177.935L28.4235 182.563L53.4868 174.769L56.6501 154.555L19.1768 156.016L5.06348 177.935Z" fill="#477D89"/>
<path d="M359.113 259.041L237.447 227.867L195.35 202.781L198.513 212.28L277.84 260.746L319.937 268.539L418.243 294.842L475.913 307.507L482.24 296.547L436.98 277.794L359.113 259.041Z" fill="#477D89"/>
<path d="M73.1967 272.676L37.9133 298.005L63.22 330.64L94.61 323.334L129.163 312.374L116.997 284.853L73.1967 272.676Z" fill="#69A8B2"/>
<path d="M135.247 255.141L124.297 262.447L141.573 277.791L155.93 285.828L154.227 265.126L135.247 255.141Z" fill="#69A8B2"/>
</svg>
